<svg width="54" height="54" viewBox="0 0 54 54" fill="none" xmlns="http://www.w3.org/2000/svg">
  <rect width="54" height="54" rx="27" fill="#FCEAE8"/>
  <path transform="translate(-54 -52)" d="M73.5007 65.6667C72.0207 65.6667 70.834 66.8533 70.834 68.3333V89.6667C70.834 90.3739 71.1149 91.0522 71.615 91.5523C72.1151 92.0524 72.7934 92.3333 73.5007 92.3333H78.834V89.7867L81.6207 87H73.5007V84.3333H84.2873L86.954 81.6667H73.5007V79H89.6207L92.1673 76.4533V73.6667L84.1673 65.6667H73.5007ZM82.834 67.6667L90.1673 75H82.834V67.6667ZM92.3673 80.3333C92.2686 80.3312 92.1705 80.3489 92.0789 80.3856C91.9872 80.4223 91.904 80.477 91.834 80.5467L90.474 81.9067L93.2607 84.68L94.6207 83.3333C94.9007 83.04 94.9007 82.56 94.6207 82.28L92.8873 80.5467C92.8192 80.4783 92.7381 80.4242 92.6488 80.3876C92.5595 80.3509 92.4638 80.3325 92.3673 80.3333ZM89.6873 82.6933L81.5007 90.8933V93.6667H84.274L92.474 85.4667L89.6873 82.6933Z" fill="#ED1C24"/>
</svg>
