<svg width="54" height="54" viewBox="0 0 54 54" fill="none" xmlns="http://www.w3.org/2000/svg">
  <rect width="54" height="54" rx="27" fill="#FCEAE8"/>
  <path transform="translate(-54 -52)" fill-rule="evenodd" clip-rule="evenodd" d="M81.0252 67C78.0138 67 75.2705 67.9947 73.6472 68.8073C73.5005 68.8807 73.3638 68.9527 73.2365 69.022C72.9845 69.1593 72.7698 69.2873 72.5992 69.4L74.4458 72.1187L75.3152 72.4647C78.7125 74.1787 83.2685 74.1787 86.6665 72.4647L87.6532 71.9527L89.3992 69.4C89.0375 69.164 88.6615 68.951 88.2732 68.762C86.6578 67.958 83.9798 67 81.0258 67M76.7312 70.0773C76.0773 69.955 75.4314 69.7929 74.7972 69.592C76.3178 68.9167 78.5838 68.2 81.0258 68.2C82.7172 68.2 84.3165 68.544 85.6392 68.98C84.0892 69.198 82.4352 69.568 80.8592 70.0233C79.6192 70.382 78.1698 70.3433 76.7312 70.0773ZM87.3712 73.4533L87.2072 73.536C83.4698 75.4213 78.5125 75.4213 74.7752 73.536L74.6198 73.4573C69.0045 79.618 64.7178 90.998 81.0252 90.998C97.3325 90.998 92.9418 79.4067 87.3712 73.4533ZM80.3325 79C79.9789 79 79.6397 79.1405 79.3897 79.3905C79.1397 79.6406 78.9992 79.9797 78.9992 80.3333C78.9992 80.687 79.1397 81.0261 79.3897 81.2761C79.6397 81.5262 79.9789 81.6667 80.3325 81.6667V79ZM81.6658 77.6667V77H80.3325V77.6667C79.6253 77.6667 78.947 77.9476 78.4469 78.4477C77.9468 78.9478 77.6658 79.6261 77.6658 80.3333C77.6658 81.0406 77.9468 81.7189 78.4469 82.219C78.947 82.719 79.6253 83 80.3325 83V85.6667C79.7525 85.6667 79.2585 85.2967 79.0745 84.778C79.0472 84.6931 79.0032 84.6146 78.945 84.5471C78.8868 84.4795 78.8157 84.4244 78.7358 84.3848C78.6559 84.3452 78.5689 84.3221 78.48 84.3167C78.391 84.3113 78.3018 84.3239 78.2178 84.3536C78.1337 84.3833 78.0565 84.4295 77.9906 84.4896C77.9248 84.5497 77.8716 84.6223 77.8343 84.7033C77.7971 84.7843 77.7764 84.8719 77.7735 84.961C77.7707 85.0501 77.7858 85.1388 77.8178 85.222C78.0017 85.742 78.3423 86.1922 78.7926 86.5106C79.243 86.829 79.781 87 80.3325 87V87.6667H81.6658V87C82.3731 87 83.0514 86.719 83.5515 86.219C84.0516 85.7189 84.3325 85.0406 84.3325 84.3333C84.3325 83.6261 84.0516 82.9478 83.5515 82.4477C83.0514 81.9476 82.3731 81.6667 81.6658 81.6667V79C82.2458 79 82.7398 79.37 82.9238 79.8887C82.9511 79.9735 82.9952 80.052 83.0534 80.1196C83.1115 80.1871 83.1827 80.2423 83.2625 80.2819C83.3424 80.3215 83.4294 80.3446 83.5184 80.35C83.6074 80.3553 83.6965 80.3428 83.7806 80.3131C83.8646 80.2834 83.9419 80.2371 84.0077 80.1771C84.0736 80.117 84.1267 80.0443 84.164 79.9634C84.2013 79.8824 84.222 79.7948 84.2248 79.7057C84.2276 79.6166 84.2126 79.5278 84.1805 79.4447C83.9966 78.9247 83.6561 78.4745 83.2057 78.1561C82.7554 77.8377 82.2174 77.6667 81.6658 77.6667ZM81.6658 83V85.6667C82.0195 85.6667 82.3586 85.5262 82.6087 85.2761C82.8587 85.0261 82.9992 84.687 82.9992 84.3333C82.9992 83.9797 82.8587 83.6406 82.6087 83.3905C82.3586 83.1405 82.0195 83 81.6658 83Z" fill="#ED1C24"/>
</svg>
