<svg width="54" height="54" viewBox="0 0 54 54" fill="none" xmlns="http://www.w3.org/2000/svg">
  <rect width="54" height="54" rx="27" fill="#FCEAE8"/>
  <path transform="translate(-54 -52)" d="M79.6667 66.0333C80.0889 65.7889 80.5333 65.6667 81 65.6667C81.4667 65.6667 81.9111 65.7889 82.3333 66.0333L91.6667 71.4C92.0889 71.6444 92.4169 71.9667 92.6507 72.3667C92.8844 72.7667 93.0009 73.2111 93 73.7V79.3333C92.2444 78.8 91.4169 78.3889 90.5173 78.1C89.6178 77.8111 88.6676 77.6667 87.6667 77.6667C87.2889 77.6667 86.928 77.6835 86.584 77.7173C86.24 77.7511 85.8898 77.812 85.5333 77.9L90.3333 75.1333V73.7333L88.9 72.9L81 77.4667L73.1 72.9L71.6667 73.7333V75.1333L79.6667 79.7667V82.2C79.2444 82.9111 78.9169 83.6667 78.684 84.4667C78.4511 85.2667 78.3342 86.1111 78.3333 87C78.3333 87.9333 78.4613 88.8222 78.7173 89.6667C78.9733 90.5111 79.3342 91.3 79.8 92.0333C79.7778 92.0111 79.7556 92 79.7333 92C79.7111 92 79.6889 91.9889 79.6667 91.9667L70.3333 86.6C69.9111 86.3555 69.5836 86.0333 69.3507 85.6333C69.1178 85.2333 69.0009 84.7889 69 84.3V73.7C69 73.2111 69.1169 72.7667 69.3507 72.3667C69.5844 71.9667 69.912 71.6444 70.3333 71.4L79.6667 66.0333ZM87.6667 93.6667C85.8222 93.6667 84.2502 93.0164 82.9507 91.716C81.6511 90.4155 81.0009 88.8435 81 87C81 85.1555 81.6502 83.5835 82.9507 82.284C84.2511 80.9844 85.8231 80.3342 87.6667 80.3333C89.5111 80.3333 91.0836 80.9835 92.384 82.284C93.6844 83.5844 94.3342 85.1564 94.3333 87C94.3333 88.8444 93.6831 90.4169 92.3827 91.7173C91.0822 93.0178 89.5102 93.6675 87.6667 93.6667ZM88.3333 86.7333V83H87V87.2667L89.8667 90.1333L90.8 89.2L88.3333 86.7333Z" fill="#ED1C24"/>
</svg>
