<svg width="135" height="32" viewBox="0 0 135 32" fill="none" xmlns="http://www.w3.org/2000/svg">
<g clip-path="url(#clip0_6138_5201)">
<path d="M0 0V32H32V0H0ZM23.4462 6.66584H8.55102L4.55208 2.6669H27.4479L23.449 6.66584H23.4462ZM20.7793 9.33275L15.9986 14.1134L11.2179 9.33275H20.7793ZM12.7786 14.6665H2.66408V4.55208L12.7786 14.6665ZM12.7786 17.3335L2.66408 27.4479V17.3335H12.7786ZM15.9986 17.8866L20.7793 22.6673H11.2179L15.9986 17.8866ZM8.55102 25.3342H23.4462L27.4451 29.3331H4.54925L8.5482 25.3342H8.55102ZM19.2158 17.3335H29.3303V27.4479L19.2158 17.3335ZM19.2158 14.6665L29.3303 4.55208V14.6665H19.2158Z" fill="#ED1C24"/>
<path d="M52.9481 20.0647C52.7384 21.7341 52.0691 23.0689 50.944 24.0609C49.819 25.0528 48.4036 25.5529 46.6979 25.5529C44.6575 25.5529 43.0324 24.9077 41.8186 23.6133C40.6049 22.3188 40 20.6293 40 18.5364C40 16.2863 40.6089 14.4959 41.8348 13.1693C43.0566 11.8426 44.7058 11.1772 46.7785 11.1772C48.5205 11.1772 49.9198 11.6168 50.9843 12.4958C52.0489 13.3749 52.6659 14.5967 52.8433 16.1613H49.8633C49.6859 15.2984 49.3351 14.6411 48.8068 14.1814C48.2786 13.7257 47.6092 13.4959 46.8027 13.4959C45.6414 13.4959 44.726 13.9314 44.0607 14.8024C43.3913 15.6734 43.0566 16.863 43.0566 18.3751C43.0566 19.8873 43.3751 21.0648 44.0203 21.9075C44.6615 22.7503 45.5527 23.1737 46.6979 23.1737C47.5931 23.1737 48.327 22.9035 48.8996 22.3672C49.4722 21.8309 49.8351 21.0607 49.9924 20.0607H52.9481V20.0647Z" fill="#101828"/>
<path d="M55.1333 15.7905C55.4518 12.7137 57.4358 11.1733 61.0932 11.1733C62.7989 11.1733 64.1579 11.508 65.17 12.1774C66.1821 12.8468 66.6862 13.8831 66.6862 15.2905V22.202C66.6862 22.5891 66.7346 22.8513 66.8314 22.9924C66.9281 23.1335 67.1177 23.2021 67.3999 23.2021C67.6096 23.2021 67.8395 23.1859 68.0854 23.1497V25.2586C67.3112 25.4522 66.662 25.549 66.1337 25.549C64.8514 25.549 64.1095 25.0046 63.9199 23.9118C62.7747 25.0005 61.186 25.549 59.1455 25.549C57.7382 25.549 56.6212 25.186 55.7946 24.4562C54.9679 23.7263 54.5566 22.7383 54.5566 21.4883C54.5566 21.1012 54.601 20.7423 54.6897 20.4076C54.7784 20.0729 54.8792 19.7826 54.9921 19.5366C55.1051 19.2906 55.2905 19.0608 55.5446 18.8511C55.7986 18.6414 56.0123 18.464 56.1777 18.3228C56.343 18.1817 56.6172 18.0486 56.9963 17.9277C57.3753 17.8067 57.6535 17.7139 57.839 17.6494C58.0245 17.5889 58.3431 17.5204 58.8028 17.4518C59.2585 17.3833 59.5649 17.3349 59.7141 17.3067C59.8633 17.2784 60.1738 17.2422 60.6496 17.1897C61.7223 17.0486 62.4521 16.9317 62.8392 16.8349C63.2264 16.7381 63.4885 16.5929 63.6296 16.3994C63.7506 16.2582 63.8151 15.9356 63.8151 15.4235C63.8151 14.0525 62.8836 13.367 61.0206 13.367C60.0367 13.367 59.3149 13.5525 58.8592 13.9194C58.4036 14.2904 58.1132 14.9114 57.9882 15.7905H55.1413H55.1333ZM63.7828 18.3753C63.553 18.5003 63.2909 18.6091 62.9925 18.7059C62.6941 18.8027 62.4521 18.8632 62.2666 18.8914C62.0812 18.9196 61.7908 18.9559 61.3956 19.0084C61.0005 19.0608 60.7424 19.0971 60.6174 19.1132C60.2464 19.1656 59.9601 19.214 59.7464 19.2584C59.5367 19.3027 59.2746 19.3753 58.9681 19.4842C58.6617 19.589 58.4237 19.7181 58.2544 19.8673C58.085 20.0165 57.9398 20.2181 57.8189 20.4721C57.6939 20.7262 57.6334 21.0286 57.6334 21.3835C57.6334 22.0327 57.8471 22.5367 58.2786 22.8875C58.71 23.2384 59.3109 23.4158 60.0851 23.4158C61.4198 23.4158 62.4481 23.0569 63.1699 22.3351C63.5732 21.9319 63.7748 21.1496 63.7748 19.9882V18.3793L63.7828 18.3753Z" fill="#101828"/>
<path d="M77.6341 11.3347V14.2098C77.1058 14.1573 76.755 14.1291 76.5776 14.1291C73.9565 14.1291 72.646 15.8268 72.646 19.218V25.2062H69.666V11.5968H72.4887V14.3146C73.4565 12.2944 74.9767 11.2822 77.0534 11.2822L77.6341 11.3347Z" fill="#101828"/>
<path d="M80.8003 11.6492V14.0243C81.3809 13.1089 82.0221 12.4234 82.7278 11.9677C83.4294 11.5121 84.2924 11.2822 85.3126 11.2822C86.3328 11.2822 87.1272 11.5161 87.8046 11.9798C88.4821 12.4476 88.9418 13.0928 89.1877 13.9194C90.1192 12.1613 91.6233 11.2822 93.7 11.2822C94.9299 11.2822 95.9622 11.6371 96.801 12.3508C97.6357 13.0646 98.055 14.1211 98.055 15.5284V25.2062H96.3937V15.976C96.3937 13.8307 95.3452 12.7581 93.2565 12.7581C92.0588 12.7581 91.1314 13.1331 90.4741 13.8791C89.8128 14.6251 89.4861 15.6332 89.4861 16.8994V25.2062H87.853V16.105C87.853 13.871 86.861 12.7541 84.873 12.7541C83.5544 12.7541 82.5665 13.1936 81.9052 14.0727C81.2479 14.9517 80.9172 16.0969 80.9172 17.5002V25.2022H79.2559V11.6451H80.8124L80.8003 11.6492Z" fill="#101828"/>
<path d="M113.083 23.8634V25.1296C112.68 25.2707 112.24 25.3393 111.764 25.3393C111.042 25.3393 110.567 25.1215 110.341 24.6779C110.111 24.2384 109.998 23.6335 109.998 22.8593C108.857 24.6699 107.151 25.5772 104.881 25.5772C103.49 25.5772 102.405 25.2425 101.623 24.5731C100.84 23.9037 100.449 22.9722 100.449 21.7786C100.449 19.335 102.127 17.9357 105.486 17.5849C105.663 17.5688 105.909 17.5446 106.224 17.5204C106.538 17.4922 106.772 17.472 106.921 17.4559C107.07 17.4397 107.264 17.4155 107.502 17.3913C107.74 17.3672 107.913 17.343 108.03 17.3268C108.143 17.3107 108.284 17.2825 108.454 17.2462C108.619 17.2099 108.752 17.1776 108.849 17.1413C108.946 17.105 109.046 17.0647 109.151 17.0244C109.256 16.98 109.353 16.9317 109.442 16.8792C109.76 16.6695 109.917 16.2381 109.917 15.5848C109.917 14.5122 109.619 13.7541 109.022 13.3186C108.425 12.8831 107.546 12.6573 106.385 12.6573C105.224 12.6573 104.369 12.9153 103.76 13.4355C103.155 13.9557 102.796 14.7582 102.691 15.851H101.111C101.179 14.3912 101.691 13.2662 102.639 12.4758C103.586 11.6855 104.897 11.2903 106.57 11.2903C108.119 11.2903 109.337 11.625 110.224 12.2944C111.111 12.9637 111.555 13.9275 111.555 15.1937V22.577C111.555 22.9279 111.563 23.1779 111.583 23.3271C111.599 23.4763 111.675 23.6174 111.809 23.7505C111.942 23.8836 112.155 23.9481 112.454 23.9481C112.684 23.9481 112.893 23.9198 113.087 23.8674L113.083 23.8634ZM109.917 17.8228C109.76 18.0002 109.498 18.1454 109.139 18.2583C108.78 18.3712 108.45 18.4559 108.151 18.5083C107.853 18.5607 107.341 18.6293 106.623 18.718C106.445 18.7341 106.316 18.7543 106.228 18.7704C105.663 18.839 105.203 18.9196 104.845 19.0084C104.486 19.0971 104.07 19.2422 103.607 19.4439C103.139 19.6455 102.788 19.9277 102.55 20.2866C102.312 20.6455 102.195 21.0891 102.195 21.6173C102.195 22.4077 102.478 23.0367 103.038 23.5045C103.603 23.9723 104.357 24.2021 105.304 24.2021C106.587 24.2021 107.679 23.819 108.575 23.0529C109.47 22.2867 109.921 21.2826 109.921 20.0326V17.8188L109.917 17.8228Z" fill="#101828"/>
<path d="M121.814 11.4395V13.129C121.745 13.129 121.661 13.125 121.564 13.1169C121.467 13.1089 121.403 13.1048 121.366 13.1048C120.346 13.1048 119.435 13.3992 118.636 13.988C117.838 14.5767 117.306 15.3549 117.04 16.3227C116.83 17.1494 116.721 18.2664 116.721 19.6737V25.2142H115.088V11.6572H116.644V14.8993C117.225 13.6533 117.894 12.7661 118.649 12.25C119.403 11.7298 120.459 11.4637 121.814 11.4435V11.4395Z" fill="#101828"/>
<path d="M134.606 11.6491L128.803 16.6332L135.001 25.2061H132.916L127.509 17.7663L124.819 20.0608V25.2021H123.238V6.4231H124.819V18.2663L132.388 11.6451H134.602L134.606 11.6491Z" fill="#101828"/>
</g>
<defs>
<clipPath id="clip0_6138_5201">
<rect width="135" height="32" fill="white"/>
</clipPath>
</defs>
</svg>
